<svg xmlns="http://www.w3.org/2000/svg" width="31.086" height="31.193" viewBox="0 0 31.086 31.193">
  <g id="icon" transform="translate(6.104 3.067)">
    <path id="Path_9" data-name="Path 9" d="M19.76,2.282A11,11,0,0,0,17.526.08a.344.344,0,1,0-.406.553,10.3,10.3,0,1,1-12.837.538V4.48a.344.344,0,1,0,.687,0V.356A.344.344,0,0,0,4.627.013H.344A.344.344,0,1,0,.344.7H3.78a11,11,0,0,0,7.263,19.245A10.892,10.892,0,0,0,17.677,17.7,11.028,11.028,0,0,0,19.76,2.282Z" transform="translate(-5.323 13.744) rotate(-47)" fill="#ef6c4d" stroke="#ef6c4d" stroke-width="1"/>
    <g id="Group_4" data-name="Group 4" transform="translate(4 6.083)">
      <path id="Path_8" data-name="Path 8" d="M3.477,11.341h6.894a1.477,1.477,0,0,0,1.477-1.477V5.432a1.477,1.477,0,0,0-1.477-1.477H9.387V3.462a2.462,2.462,0,0,0-4.924,0v.492H3.477A1.477,1.477,0,0,0,2,5.432V9.864A1.477,1.477,0,0,0,3.477,11.341Zm1.97-7.879a1.477,1.477,0,0,1,2.955,0v.492H5.447ZM2.985,5.432a.492.492,0,0,1,.492-.492h6.894a.492.492,0,0,1,.492.492V9.864a.492.492,0,0,1-.492.492H3.477a.492.492,0,0,1-.492-.492Z" transform="translate(-2 -1)" fill="#ef6c4d" stroke="#ef6c4d" stroke-width="1"/>
      <circle id="Ellipse_1" data-name="Ellipse 1" cx="0.985" cy="0.985" r="0.985" transform="translate(3.94 5.663)" fill="#ef6c4d" stroke="#ef6c4d" stroke-width="1"/>
    </g>
  </g>
</svg>
