<svg xmlns="http://www.w3.org/2000/svg" width="25.5" height="25.5" viewBox="0 0 25.5 25.5">
  <path id="icon" d="M12.75,0A12.75,12.75,0,1,0,25.5,12.75,12.752,12.752,0,0,0,12.75,0Zm1.026,23.228a.541.541,0,0,0-.194.028V17.241c1.441-.028,2.744-.055,3.936-.139A15.892,15.892,0,0,1,13.776,23.228Zm-2.051,0A16.021,16.021,0,0,1,7.983,17.1c1.164.083,2.495.139,3.936.139v6.015c-.055,0-.111-.028-.194-.028ZM2.217,12.75A12.543,12.543,0,0,1,2.411,10.7c.61-.111,1.774-.277,3.409-.443A14.725,14.725,0,0,0,5.6,12.778a17.523,17.523,0,0,0,.194,2.495c-1.608-.166-2.8-.333-3.409-.443a17.506,17.506,0,0,1-.166-2.079Zm5.072,0a13.511,13.511,0,0,1,.277-2.661c1.275-.083,2.716-.166,4.352-.166v5.654c-1.608-.028-3.077-.083-4.379-.194A15.448,15.448,0,0,1,7.29,12.75ZM13.748,2.273A16.892,16.892,0,0,1,17.49,8.4c-1.164-.083-2.467-.139-3.908-.139V2.245c.055,0,.111.028.166.028Zm-1.829-.028V8.26c-1.441.028-2.744.055-3.908.139a16.944,16.944,0,0,1,3.714-6.126C11.808,2.273,11.863,2.245,11.919,2.245Zm1.663,13.332V9.923c1.608.028,3.077.083,4.352.166a13.577,13.577,0,0,1,.028,5.322c-1.275.083-2.744.139-4.379.166Zm6.07-5.322c1.635.166,2.8.333,3.409.443a10.105,10.105,0,0,1,.222,2.051,12.543,12.543,0,0,1-.194,2.051c-.61.111-1.774.277-3.409.443a14.777,14.777,0,0,0,.194-2.522A14.325,14.325,0,0,0,19.652,10.256Zm2.91-1.33c-.776-.111-1.885-.249-3.3-.388a18.2,18.2,0,0,0-2.8-5.654A10.564,10.564,0,0,1,22.562,8.925ZM9.036,2.883a17.158,17.158,0,0,0-2.8,5.627c-1.386.111-2.495.277-3.3.388a10.676,10.676,0,0,1,6.1-6.015Zm-6.1,13.693c.776.111,1.885.249,3.271.388A17.159,17.159,0,0,0,8.981,22.59a10.662,10.662,0,0,1-6.043-6.015ZM16.52,22.59a16.989,16.989,0,0,0,2.772-5.6c1.386-.111,2.495-.277,3.271-.388A10.7,10.7,0,0,1,16.52,22.59Z" fill="#ef6c4d"/>
</svg>
