<svg xmlns="http://www.w3.org/2000/svg" width="16" height="16" viewBox="0 0 16 16">
  <g id="edit" transform="translate(-338.949 -89.328)">
    <path id="Vector" d="M1.34.217a2.854,2.854,0,0,1,3.11,4.655l-.415.415L0,1.25.414.836A2.854,2.854,0,0,1,1.34.217Z" transform="translate(349.662 89.328)" fill="#ababab"/>
    <path id="Vector-2" data-name="Vector" d="M13.618,4.036,5.36,12.294A.8.8,0,0,1,5,12.5L1.011,13.59a.8.8,0,0,1-.982-.982L1.118,8.613a.8.8,0,0,1,.206-.355L9.582,0Z" transform="translate(338.949 91.71)" fill="#ababab"/>
  </g>
</svg>
